<svg clip-rule="evenodd" fill-rule="evenodd" height="2.667in" image-rendering="optimizeQuality" shape-rendering="geometricPrecision" text-rendering="geometricPrecision" viewBox="0 0 2.66666 2.66666" width="2.667in" xmlns="http://www.w3.org/2000/svg" xmlns:xlink="http://www.w3.org/1999/xlink"><linearGradient id="id0" gradientUnits="userSpaceOnUse" x1="-.088" x2="2.755" y1="1.721" y2=".946"><stop offset="0" stop-color="#0cf"/><stop offset="1" stop-color="#00f"/></linearGradient><g id="Layer_x0020_1"><circle cx="1.333" cy="1.333" fill="url(#id0)" r="1.333"/><g id="_222698336"><g><g id="_222699056"><path id="_193597232" d="m1.57699 1.21217c-.0119646 0-.0216614-.00969685-.0216614-.0216575v-.209161c0-.0454724-.0384173-.0838898-.0838858-.0838898-.0454843 0-.0839055.0384173-.0839055.0838898v.120106c0 .0119646-.00969685.0216614-.0216614.0216614-.0119606 0-.0216575-.00969685-.0216575-.0216614v-.120106c0-.0689528.058252-.127209.127209-.127209.0701575 0 .12722.0570669.12722.127209v.209161c0 .0119606-.00969685.0216575-.0216575.0216575z" fill="#fefefe"/></g><g id="_222698960"><path id="_193596992" d="m1.78809 1.29661c-.0119646 0-.0216614-.00969685-.0216614-.0216614l.00000394-.181012c0-.0462559-.0376339-.0838898-.0838898-.0838898-.0454803 0-.0839016.0384173-.0839016.0838898v.0919567c0 .0119646-.00969685.0216614-.0216614.0216614-.0119646 0-.0216614-.00969685-.0216614-.0216614v-.0919567c0-.0701417.0570669-.127209.127213-.127209.0701535 0 .12722.0570669.12722.127209v.181012c0 .0119646-.00969685.0216614-.0216614.0216614z" fill="#fefefe"/></g><g id="_222698984"><path id="_193596560" d="m1.9992 1.38104c-.0119606 0-.0216575-.00969685-.0216575-.0216614v-.522508c0-.0462559-.0376339-.0838858-.0838898-.0838858-.0462717 0-.0839055.0376299-.0839055.0838858v.433457c0 .0119646-.00969685.0216614-.0216614.0216614-.0119606 0-.0216575-.00969685-.0216575-.0216614v-.433457c0-.0701457.0570669-.127209.127213-.127209.0701535 0 .127224.0570669.127224.127209v.522512c-.00000394.0119606-.00970079.0216575-.0216654.0216575z" fill="#fefefe"/></g><g id="_222699152"><path id="_193596584" d="m1.49297 2.18645c-.0445669 0-.0885315-.00593701-.130917-.0178504-.103744-.0291614-.194701-.0941811-.263039-.188024-.0752559-.103346-.165996-.241846-.246059-.364043-.0705315-.107654-.131441-.200622-.167366-.247878-.0656417-.0864173-.0395079-.157984.00281496-.193012.047063-.0389528.127854-.0435827.181677.0160315l.300504.322551c.00815354.00874803.00766929.0224567-.00108268.0306142-.00875591.00815354-.0224606.00767717-.0306142-.00108268l-.300618-.322673c-.00008661-.00009055-.00016929-.0001811-.00024803-.00027165-.0377913-.0419646-.0910591-.0374016-.121992-.0117913-.0288819.0238976-.0429803.0715039.00405906.133429.0368307.0484528.0981339.142008.169106.250346.0797874.121776.170217.259799.244843.36228.121469.166807.312047.227949.509752.163598.166126-.0540827.333748-.206965.333748-.426622v-.332665c0-.0119646.00969685-.0216614.0216614-.0216614.0119646 0 .0216614.00969685.0216614.0216614v.332665c0 .10648-.037126.208157-.107358.294039-.0649291.0793937-.155953.14111-.256303.173776-.0543976.0177047-.109756.0265827-.164228.0265827z" fill="#fefefe"/></g><g id="_222698912"><path id="_193596680" d="m1.6196 2.0127c-.00716535 0-.0141772-.00355118-.0183031-.0100472-.00641732-.0100984-.00342913-.0234882.00666535-.0299016.135248-.0859331.215992-.224657.215992-.371087 0-.0119646.00969685-.0216614.0216614-.0216614.0119606 0 .0216575.00969685.0216575.0216614 0 .161335-.088252.313728-.236075.407654-.00359843.0022874-.00762205.00338189-.0115984.00338189z" fill="#fefefe"/></g><g id="_222698864"><path id="_193596536" d="m1.15473 1.55067c-.0119646 0-.0216614-.00969685-.0216614-.0216614l.00005118-.921579c0-.0701496.057063-.127217.127209-.127217.0701575 0 .12722.0570669.12722.127217v.494035c0 .0119646-.00969685.0216614-.0216614.0216614-.0119606 0-.0216575-.00969685-.0216575-.0216614v-.494035c0-.0454764-.0384173-.0838937-.0838898-.0838937-.0462677 0-.0838976.0376339-.0838976.0838937l-.00005512.921583c0 .0119567-.00969685.0216575-.0216575.0216575z" fill="#fefefe"/></g></g></g></g></svg>